<svg width="200" height="70" viewBox="0 0 200 70" fill="none" xmlns="http://www.w3.org/2000/svg">
<path d="M195.077 29.9266C195.025 29.3483 194.876 28.9073 194.629 28.5949C194.384 28.2848 194.076 28.1455 193.701 28.1751C193.27 28.2109 192.902 28.4367 192.591 28.8482C191.411 30.4669 190.463 31.6465 189.75 32.383C189.037 33.1217 188.409 33.5099 187.864 33.5564C187.519 33.586 187.228 33.4846 186.99 33.2567C186.752 33.0267 186.615 32.7081 186.575 32.2945C186.463 31.0599 186.593 28.8376 186.963 25.6257C187.195 23.4226 187.283 22.0319 187.233 21.4557C187.145 20.4956 186.399 20.0735 184.991 20.1916C184.333 20.2465 183.708 20.3562 183.114 20.5167C182.915 19.9257 182.697 19.5206 182.464 19.3053C182.227 19.09 181.791 19.0098 181.162 19.0605C179.183 19.2272 177.366 19.9806 175.712 21.3207C174.054 22.6628 172.786 24.3595 171.906 26.4087C171.842 26.5564 171.802 26.7083 171.745 26.8561L171.73 26.8603C169.956 27.3689 168.526 27.6938 167.442 27.8416C167.984 26.1935 168.2 24.7499 168.086 23.5154C167.986 22.4455 167.655 21.6499 167.086 21.1308C166.519 20.6116 165.817 20.3857 164.986 20.4575C164.039 20.5378 163.217 20.8817 162.521 21.4937C161.827 22.1057 161.304 22.8676 160.953 23.7834C160.602 24.6972 160.47 25.6216 160.557 26.5543C160.658 27.6516 160.961 28.5823 161.463 29.3421C160.735 30.8699 159.621 32.9254 158.124 35.5105C157.261 30.4943 156.685 26.4087 156.396 23.2537C156.325 22.4856 156.125 21.9622 155.799 21.6857C155.467 21.4093 154.917 21.3038 154.141 21.3671C153.51 21.4199 152.984 21.6098 152.567 21.9348C152.145 22.2618 151.818 22.8486 151.578 23.6969C150.333 28.0886 148.914 32.3282 147.321 36.4159C146.459 31.3996 145.881 27.314 145.594 24.1569C145.525 23.4162 145.298 22.9034 144.91 22.6164C144.521 22.3315 143.957 22.2196 143.211 22.2808C142.234 22.3632 141.519 22.6038 141.063 23.0005C140.609 23.3973 140.407 24.0514 140.463 24.9568L140.595 26.3981C140.789 28.5084 141.101 30.8763 141.524 33.4888C140.48 34.9007 139.625 35.9622 138.972 36.6353C138.259 37.3719 137.628 37.7623 137.086 37.8066C136.741 37.8362 136.45 37.7369 136.212 37.507C135.974 37.279 135.837 36.9583 135.798 36.5467C135.685 35.3123 135.815 33.09 136.185 29.878C136.415 27.6748 136.506 26.2821 136.454 25.7081C136.367 24.7478 135.618 24.3257 134.213 24.4439C133.552 24.4989 132.928 24.6065 132.336 24.7668C132.137 24.1759 131.919 23.7729 131.683 23.5556C131.447 23.3402 131.01 23.2601 130.382 23.3107C128.401 23.4774 126.585 24.2308 124.931 25.5709C123.274 26.9131 122.006 28.6098 121.123 30.6589C120.241 32.7102 119.901 34.8331 120.102 37.0278C120.106 37.0638 120.115 37.0954 120.12 37.1313C119.685 37.621 119.281 38.0388 118.924 38.3489C118.092 39.0707 117.091 39.478 115.915 39.5772C115.167 39.6384 114.543 39.4505 114.042 39.0073C113.537 38.5664 113.136 37.7897 112.831 36.6818C115.686 32.1826 117.863 27.7023 119.363 23.2347C120.863 18.7693 121.463 14.901 121.163 11.6342C120.956 9.35716 120.4 7.64145 119.5 6.48499C118.6 5.32852 117.461 4.80938 116.083 4.92334C113.645 5.12804 111.684 6.84164 110.2 10.062C108.715 13.2824 107.718 17.0725 107.206 21.4304C106.694 25.7882 106.591 29.6396 106.897 32.9866C107.016 34.2887 107.213 35.4937 107.486 36.6016C106.542 37.8657 105.755 38.8322 105.148 39.459C104.435 40.1976 103.807 40.5881 103.262 40.6324C102.918 40.6597 102.627 40.5606 102.388 40.3327C102.15 40.1048 102.013 39.784 101.974 39.3704C101.861 38.1358 101.991 35.9136 102.362 32.7017C102.593 30.4985 102.682 29.1078 102.631 28.5316C102.543 27.5715 101.797 27.1515 100.39 27.2676C99.7302 27.3224 99.106 27.4323 98.5125 27.5904C98.3118 26.9996 98.0957 26.5943 97.8596 26.3791C97.6235 26.1639 97.1867 26.0837 96.5582 26.1343C94.5794 26.3011 92.7617 27.0545 91.1072 28.3945C89.4507 29.7367 88.1822 31.4334 87.3021 33.4826C86.4572 35.4472 86.1218 37.4795 86.2719 39.5772C85.7535 40.225 85.2924 40.7569 84.9019 41.1515C84.1762 41.8902 83.5255 42.2827 82.9519 42.3311C82.1204 42.4008 81.6548 41.888 81.5556 40.7886C81.485 40.0203 81.613 38.4186 81.9394 35.9854C82.3145 33.1343 82.4534 31.1718 82.3563 30.1018C82.1931 28.3185 81.1784 27.5039 79.3143 27.6601C78.368 27.7403 77.3577 28.1434 76.2812 28.8693C75.2048 29.5953 74.1547 30.7412 73.1267 32.3071C72.0988 33.873 71.2186 35.863 70.484 38.273C70.3472 36.7642 70.2568 35.2932 70.2105 33.8581C73.6628 29.5594 76.0959 25.8515 77.5188 22.7304C78.9394 19.6113 79.5217 16.6653 79.2681 13.8923C79.1092 12.1639 78.5709 10.7922 77.6554 9.775C76.7378 8.75993 75.6216 8.30621 74.3024 8.41594C71.8363 8.62275 69.862 10.3575 68.3818 13.62C66.9038 16.8826 65.9222 20.8437 65.4369 25.5012C64.9537 30.1608 64.9031 34.6032 65.2891 38.8302L65.4148 40.4319C64.5788 41.5356 63.8795 42.3818 63.3258 42.9537C62.6132 43.6924 61.9845 44.0828 61.4397 44.1271C61.0956 44.1567 60.8044 44.0574 60.5661 43.8273C60.328 43.5995 60.1912 43.2788 60.1514 42.8672C60.039 41.6326 60.1691 39.4083 60.5397 36.1985C60.7713 33.9953 60.8596 32.6026 60.8088 32.0286C60.7206 31.0683 59.975 30.6462 58.5676 30.7644C57.9081 30.8192 57.2838 30.9269 56.6904 31.0873C56.4896 30.4964 56.2735 30.0934 56.0374 29.8759C55.8013 29.6607 55.3646 29.5805 54.7359 29.6311C52.7572 29.7979 50.9395 30.5513 49.285 31.8914C47.6285 33.2335 46.36 34.9302 45.4799 36.9794C44.9372 38.2372 44.6261 39.5265 44.4915 40.8391C42.6143 41.3816 40.8033 41.9492 39.0936 42.5527C39.2127 40.3855 39.3429 38.2455 39.4819 36.1331C39.6208 34.0207 39.7444 31.963 39.8503 29.9624C40.0665 26.626 40.2871 22.8887 40.5164 18.7482C40.5275 18.554 40.5164 18.2924 40.4878 17.9632C40.3114 16.0427 39.2216 15.1648 37.2142 15.3336C36.237 15.4159 35.5157 15.7325 35.0457 16.2833C34.5737 16.8341 34.3244 17.7205 34.2892 18.9402C34.1546 23.7898 33.5855 27.9303 32.5861 31.3617C31.5846 34.7909 30.3471 37.3909 28.8758 39.1573C27.4044 40.9257 25.8934 41.8753 24.3448 42.004C23.0543 42.1138 22.1234 41.8859 21.5521 41.3266C20.9807 40.7653 20.63 39.7861 20.5021 38.3849C20.4514 37.8383 20.4756 37.1376 20.5705 36.285C20.6654 35.4346 20.8219 34.3077 21.0403 32.9064C21.3757 30.5554 21.6094 28.6203 21.7462 27.1029C21.8808 25.5835 21.8853 24.1126 21.7551 22.6839C21.5742 20.7066 20.9411 19.2525 19.8602 18.3197C18.777 17.387 17.3608 16.9945 15.6115 17.1422C11.6784 17.4714 8.42905 19.6788 5.85252 23.7665C5.15545 24.9167 4.8422 25.9107 4.91942 26.7611C4.96133 27.2275 5.15104 27.6348 5.48634 27.9788C5.82385 28.3249 6.19003 28.4811 6.5915 28.4472C7.07682 28.4072 7.49814 28.1075 7.8533 27.5525C8.9673 25.8283 10.0548 24.5262 11.1181 23.6483C12.1791 22.7704 13.1255 22.2978 13.9572 22.2281C15.0181 22.1395 15.6115 22.7536 15.7307 24.0704C15.81 24.9504 15.7946 25.9591 15.6822 27.1029C15.5697 28.2467 15.3844 29.781 15.1284 31.712C14.8329 33.837 14.6233 35.5232 14.5064 36.7619C14.3872 38.0029 14.3762 39.1319 14.4689 40.1449C14.6784 42.424 15.4924 44.2283 16.9152 45.5621C18.338 46.8937 20.2792 47.4592 22.7477 47.2504C25.3287 47.0351 27.5898 46.0032 29.5331 44.1524C31.4743 42.3038 32.9634 39.6194 34.0002 36.1035C33.9296 37.2178 33.8656 38.1062 33.8104 38.7731L33.4796 44.6483C28.1589 46.8368 24.2543 49.1687 21.7639 51.6442C19.2711 54.1195 18.1594 56.7996 18.4219 59.6802C18.5807 61.4086 19.3616 62.7762 20.7691 63.7764C22.1764 64.7789 24.0691 65.1799 26.4493 64.9815C30.034 64.6817 32.906 63.1348 35.0656 60.3408C37.223 57.5467 38.4584 53.4125 38.765 47.9405L38.8046 46.9423C40.7746 46.3134 42.7864 45.7288 44.818 45.1654C45.16 46.326 45.707 47.3094 46.4968 48.0818C47.6703 49.2277 49.1483 49.7257 50.9262 49.5759C53.1918 49.386 54.9675 48.0756 56.247 45.6465C56.7477 46.6827 57.4183 47.4783 58.2632 48.0291C59.1081 48.5799 60.0059 48.8163 60.9523 48.7361C62.1853 48.6326 63.4162 48.046 64.6493 46.974C65.0817 46.6003 65.4964 46.1888 65.9045 45.7626C66.0347 46.4822 66.1979 47.0394 66.3986 47.3897C66.7229 47.9573 67.3185 48.2043 68.1789 48.1325C70.3318 47.951 71.5781 46.7418 71.9223 44.5006C72.2002 42.7913 72.6127 41.1515 73.1643 39.5856C73.7135 38.0197 74.2914 36.7472 74.8959 35.7702C75.5004 34.7931 75.9878 34.2887 76.3606 34.257C76.6761 34.2296 76.8547 34.4364 76.8945 34.8753C76.954 35.5337 76.8768 36.7451 76.6628 38.5051C76.4422 40.5142 76.3672 41.9049 76.4378 42.673C76.5768 44.2094 77.0554 45.351 77.8783 46.0981C78.6967 46.8451 79.8394 47.1575 81.3019 47.033C83.0799 46.8853 84.6218 46.286 85.9277 45.2372C86.4947 44.7813 87.0483 44.2684 87.5932 43.7156C87.8116 44.0237 88.0476 44.317 88.319 44.5808C89.4925 45.7267 90.9705 46.2248 92.7485 46.077C95.0162 45.8871 96.7897 44.5765 98.0692 42.1476C98.5699 43.1859 99.2405 43.9794 100.085 44.5302C100.93 45.081 101.828 45.3173 102.774 45.2372C104.007 45.1337 105.238 44.5492 106.472 43.477C107.398 42.6709 108.274 41.7424 109.097 40.6936C109.229 40.9194 109.364 41.1431 109.507 41.3541C110.927 43.4476 112.897 44.3887 115.423 44.1778C117.259 44.0237 118.858 43.4201 120.221 42.3671C120.706 41.9914 121.17 41.5736 121.622 41.1346C121.787 41.3456 121.946 41.563 122.138 41.7508C123.314 42.8968 124.79 43.3948 126.568 43.2449C128.833 43.0551 130.609 41.7445 131.888 39.3156C132.389 40.3516 133.06 41.1472 133.904 41.698C134.752 42.2488 135.647 42.4853 136.594 42.405C137.827 42.3016 139.06 41.715 140.291 40.6429C141.076 39.9612 141.817 39.1846 142.525 38.3299C142.834 39.2417 143.213 39.9761 143.679 40.4826C144.433 41.3034 145.398 41.6664 146.575 41.5672C147.524 41.4871 148.326 41.1873 148.986 40.6597C149.645 40.1343 150.272 39.2395 150.864 37.9734C151.458 36.7071 152.092 34.8838 152.772 32.5033L153.261 35.4894C153.582 37.4267 154.076 38.7942 154.741 39.5962C155.407 40.3981 156.314 40.7505 157.461 40.6535C158.494 40.567 159.391 40.2018 160.157 39.5581C160.923 38.9124 161.807 37.7602 162.813 36.1015C163.688 34.6454 164.486 33.2378 165.2 31.8786C166.347 32.1129 167.553 32.1784 168.816 32.0749C169.515 32.0158 170.19 31.9082 170.843 31.7626C170.847 32.0981 170.843 32.4316 170.874 32.7714C171.056 34.7762 171.736 36.3505 172.909 37.4964C174.083 38.6423 175.561 39.1403 177.339 38.9905C179.605 38.8006 181.38 37.49 182.66 35.0611C183.161 36.0994 183.831 36.8929 184.676 37.4437C185.521 37.9945 186.418 38.2308 187.366 38.1507C188.599 38.0472 189.829 37.4605 191.063 36.3884C192.293 35.3185 193.433 34.0334 194.481 32.535C194.972 31.885 195.168 31.0113 195.066 29.914L195.077 29.9266ZM70.945 20.7149C71.3113 18.2649 71.748 16.3065 72.251 14.8399C72.7518 13.3731 73.2613 12.6176 73.7775 12.5754C74.1503 12.5438 74.4591 12.7527 74.7018 13.2022C74.9444 13.6516 75.1054 14.3164 75.1871 15.1943C75.3635 17.1169 74.9797 19.3053 74.0334 21.7617C73.087 24.2202 71.8164 26.5248 70.2194 28.6773C70.334 25.8199 70.5745 23.1651 70.945 20.7129V20.7149ZM33.2148 49.3227C32.8686 56.595 30.7001 60.3999 26.714 60.7334C25.7963 60.8093 25.0617 60.6151 24.5147 60.1487C23.9654 59.6845 23.6565 59.0661 23.586 58.298C23.286 55.0038 26.5 51.9163 33.2303 49.0272L33.2126 49.3206L33.2148 49.3227ZM54.7954 41.1283C54.6455 42.3311 54.3168 43.3104 53.8094 44.0723C53.2999 44.8341 52.7307 45.2413 52.0999 45.2941C51.4689 45.3469 50.955 45.1822 50.5579 44.8002C50.1631 44.4203 49.9248 43.8042 49.8476 42.9516C49.7086 41.4153 49.8762 39.9359 50.3527 38.5136C50.8292 37.0891 51.5395 35.9179 52.4792 34.9957C53.4234 34.0735 54.4954 33.55 55.6977 33.4213L54.7977 41.1283H54.7954ZM96.6199 37.6272C96.4699 38.8302 96.1412 39.8114 95.6316 40.5732C95.1221 41.3351 94.5529 41.7424 93.922 41.7952C93.2912 41.848 92.7772 41.6833 92.3801 41.3013C91.9853 40.9194 91.747 40.3032 91.6698 39.4526C91.5308 37.9163 91.6984 36.4349 92.1749 35.0125C92.6514 33.5902 93.3617 32.4189 94.3015 31.4946C95.2455 30.5724 96.3177 30.0469 97.5199 29.9202L96.6221 37.6272H96.6199ZM112.169 21.3524C112.492 17.923 112.964 15.0361 113.59 12.6894C114.212 10.3427 114.854 9.1398 115.516 9.08492C116.319 9.01739 116.815 10.0261 117.007 12.1133C117.25 14.7765 116.919 17.7689 116.008 21.0948C115.097 24.4207 113.771 27.772 112.028 31.1548C111.801 28.0505 111.85 24.7837 112.172 21.3545L112.169 21.3524ZM130.439 34.7973C130.29 36.0001 129.961 36.9794 129.45 37.7412C128.941 38.503 128.372 38.9103 127.741 38.963C127.11 39.0158 126.596 38.8513 126.199 38.4693C125.805 38.0894 125.566 37.4732 125.488 36.6206C125.35 35.0843 125.518 33.6049 125.994 32.1826C126.47 30.7581 127.18 29.5869 128.123 28.6646C129.065 27.7424 130.139 27.219 131.341 27.0903L130.442 34.7973H130.439ZM181.212 30.5471C181.063 31.7499 180.734 32.7313 180.227 33.491C179.718 34.2527 179.148 34.6601 178.518 34.7129C177.886 34.7656 177.372 34.601 176.975 34.219C176.58 33.8391 176.342 33.2229 176.265 32.3704C176.126 30.8341 176.293 29.3547 176.771 27.9324C177.247 26.5099 177.957 25.3367 178.897 24.4145C179.84 23.4923 180.913 22.9688 182.115 22.8401L181.215 30.5471H181.212Z" fill="url(#paint0_linear_2014_6)"/>
<defs>
<linearGradient id="paint0_linear_2014_6" x1="4.90796" y1="21.5724" x2="194.994" y2="36.246" gradientUnits="userSpaceOnUse">
<stop stop-color="#ED1998"/>
<stop offset="1" stop-color="#F33BD6"/>
</linearGradient>
</defs>
</svg>
